<svg width="34" height="41" viewBox="0 0 34 41" fill="none" xmlns="http://www.w3.org/2000/svg">
<path d="M4.5 39.7928H29.499C31.7081 39.7928 33.499 38.002 33.499 35.7928V20.0426C33.499 19.0738 33.1474 18.138 32.5095 17.4088L20.239 3.38323C18.6631 1.58194 15.8687 1.55842 14.2627 3.33292L1.53425 17.3971C0.868605 18.1326 0.5 19.0892 0.5 20.0812V35.7928C0.5 38.002 2.29086 39.7928 4.5 39.7928Z" fill="#EFEDE3" stroke="black"/>
<mask id="path-2-inside-1_706_144" fill="white">
<path d="M16.9995 24.2646C20.2156 24.2646 22.8226 31.2169 22.8228 39.793H11.1763C11.1764 31.217 13.7835 24.2648 16.9995 24.2646Z"/>
</mask>
<path d="M16.9995 24.2646C20.2156 24.2646 22.8226 31.2169 22.8228 39.793H11.1763C11.1764 31.217 13.7835 24.2648 16.9995 24.2646Z" fill="black"/>
<path d="M16.9995 24.2646V23.2646H16.9995L16.9995 24.2646ZM22.8228 39.793V40.793H23.8228L23.8228 39.793L22.8228 39.793ZM11.1763 39.793L10.1763 39.793L10.1763 40.793H11.1763V39.793ZM16.9995 24.2646V25.2646C17.4149 25.2646 17.9302 25.4855 18.5179 26.1483C19.1045 26.81 19.6785 27.8245 20.1808 29.1639C21.1826 31.8354 21.8227 35.5931 21.8228 39.793L22.8228 39.793L23.8228 39.793C23.8227 35.4167 23.1592 31.4103 22.0534 28.4616C21.5019 26.991 20.8211 25.7314 20.0144 24.8215C19.2087 23.9128 18.1922 23.2646 16.9995 23.2646V24.2646ZM22.8228 39.793V38.793H11.1763V39.793V40.793H22.8228V39.793ZM11.1763 39.793L12.1763 39.793C12.1763 35.5931 12.8164 31.8355 13.8183 29.164C14.3205 27.8246 14.8945 26.8101 15.4811 26.1484C16.0688 25.4856 16.5842 25.2647 16.9996 25.2646L16.9995 24.2646L16.9995 23.2646C15.8068 23.2647 14.7903 23.9129 13.9846 24.8216C13.1779 25.7315 12.4971 26.9911 11.9456 28.4617C10.8398 31.4104 10.1763 35.4168 10.1763 39.793L11.1763 39.793Z" fill="black" mask="url(#path-2-inside-1_706_144)"/>
</svg>
