<svg width="16" height="29" viewBox="0 0 16 29" fill="none" xmlns="http://www.w3.org/2000/svg">
<path d="M15.9014 25.8213C15.9014 27.4781 14.5582 28.8213 12.9014 28.8213H3C1.34315 28.8213 0 27.4781 0 25.8213V3C0 1.34315 1.34315 0 3 0H12.9014C14.5582 0 15.9014 1.34315 15.9014 3V25.8213ZM7.9502 24.8184C7.32305 24.8184 6.8146 25.3555 6.81445 26.0186C6.81445 26.6817 7.32296 27.2197 7.9502 27.2197C8.57747 27.2197 9.08594 26.6818 9.08594 26.0186C9.08579 25.3555 8.57738 24.8184 7.9502 24.8184ZM1.51465 21.0176C1.51465 22.6744 2.85779 24.0176 4.51465 24.0176H11.3867C13.0436 24.0176 14.3867 22.6744 14.3867 21.0176V5.40137C14.3867 3.74451 13.0436 2.40137 11.3867 2.40137H4.51465C2.85779 2.40137 1.51465 3.74451 1.51465 5.40137V21.0176Z" fill="#EFEDE3"/>
</svg>
