<svg width="33" height="37" viewBox="0 0 33 37" fill="none" xmlns="http://www.w3.org/2000/svg">
<path d="M16.225 0.5C20.927 0.5 24.7394 4.31165 24.7396 9.01367C24.7396 13.7159 20.9271 17.5283 16.225 17.5283C11.523 17.5281 7.7113 13.7158 7.7113 9.01367C7.71156 4.31178 11.5231 0.500202 16.225 0.5Z" fill="#EFEDE3" stroke="black"/>
<mask id="path-2-inside-1_729_203" fill="white">
<path d="M16.2256 19.8311C25.1864 19.8312 32.4502 27.0957 32.4502 36.0566H0C0 27.0956 7.26461 19.8311 16.2256 19.8311Z"/>
</mask>
<path d="M16.2256 19.8311C25.1864 19.8312 32.4502 27.0957 32.4502 36.0566H0C0 27.0956 7.26461 19.8311 16.2256 19.8311Z" fill="#EFEDE3"/>
<path d="M16.2256 19.8311L16.2256 18.8311H16.2256V19.8311ZM32.4502 36.0566V37.0566H33.4502V36.0566H32.4502ZM0 36.0566H-1V37.0566H0V36.0566ZM16.2256 19.8311L16.2256 20.8311C24.6341 20.8312 31.4502 27.6479 31.4502 36.0566H32.4502H33.4502C33.4502 26.5434 25.7388 18.8312 16.2256 18.8311L16.2256 19.8311ZM32.4502 36.0566V35.0566H0V36.0566V37.0566H32.4502V36.0566ZM0 36.0566H1C1 27.6479 7.81689 20.8311 16.2256 20.8311V19.8311V18.8311C6.71233 18.8311 -1 26.5433 -1 36.0566H0Z" fill="black" mask="url(#path-2-inside-1_729_203)"/>
</svg>
