<svg width="74" height="112" viewBox="0 0 74 112" fill="none" xmlns="http://www.w3.org/2000/svg">
<path fill-rule="evenodd" clip-rule="evenodd" d="M15.7471 1.38875V35.8092H17.4086V1.38875H15.7471ZM5.03411 0.471189H26.5593C27.8653 0.471189 29.064 0.433982 30.1551 0.359605C31.2462 0.285191 32.6515 0.165323 34.3708 0L34.9412 8.03477H34.6436L32.8085 2.1823C31.3041 1.91778 29.7335 1.78552 28.0968 1.78552C26.6915 1.78552 25.4103 1.8599 24.253 2.00869C23.0957 2.15748 21.8476 2.40547 20.5084 2.75264C20.3762 4.29019 20.277 5.77395 20.2109 7.20401C20.1447 8.63407 20.0951 9.95666 20.0621 11.1718C20.029 12.3869 20.0124 13.2177 20.0124 13.664V21.8972C20.0124 24.0629 20.0868 26.4891 20.2356 29.1756C20.3844 31.8621 20.5663 34.0072 20.7812 35.6108L26.9065 36.5284V36.7764H8.18355V36.5284L14.2096 35.6108C14.7221 31.9571 14.9784 27.5347 14.9784 22.3436V13.3664C14.9784 11.5148 14.937 9.688 14.8544 7.88598C14.7717 6.08396 14.6312 4.37285 14.4328 2.75264C13.4739 2.48813 12.358 2.27735 11.085 2.12031C9.81199 1.96324 8.60511 1.86819 7.46438 1.83512C5.66236 1.83512 3.88512 1.98391 2.13272 2.28149L0.347218 8.18356H0L0.545584 0.0495969C1.04155 0.0826615 1.76072 0.161218 2.70308 0.285191C3.6454 0.409202 4.42244 0.471189 5.03411 0.471189Z" fill="white"/>
<path fill-rule="evenodd" clip-rule="evenodd" d="M52.0526 4.98454L64.923 35.8092H66.5845L52.8709 2.90143L52.0526 4.98454ZM51.6558 7.0676C51.2094 7.94382 50.6184 9.22509 49.8827 10.9114C49.147 12.5977 48.4816 14.1765 47.8864 15.6479C47.2913 17.1193 46.6713 18.6858 46.0265 20.3472C45.3817 22.0088 44.9519 23.104 44.737 23.6331C45.7124 23.7653 46.849 23.8563 48.1468 23.9059C49.4446 23.9555 50.6804 23.9802 51.8542 23.9802C54.7473 23.9802 57.1197 23.8645 58.9714 23.6331C58.3431 21.7649 57.2768 19.1073 55.7724 15.6603C54.2679 12.2133 52.8957 9.3491 51.6558 7.0676ZM54.2844 0.0991898L65.0222 25.7162C66.4109 29.0557 68.0311 32.3704 69.8827 35.6604L73.9993 36.5284V36.7764H56.4915V36.5284L63.2367 35.6604C62.9887 34.0237 62.53 32.2423 61.8604 30.3163C61.1908 28.3903 60.451 26.7164 59.6409 25.2946H44.0922C43.4309 26.9643 42.8978 28.3366 42.4927 29.4112C42.0877 30.4858 41.6992 31.6017 41.3272 32.759C40.9552 33.9162 40.7114 34.8834 40.5956 35.6604L47.0928 36.5284V36.7764H33.2305V36.5284L37.7934 35.6604C38.901 33.7426 39.9178 31.6265 40.8436 29.312L52.3253 0.0991898H54.2844Z" fill="white"/>
<path fill-rule="evenodd" clip-rule="evenodd" d="M15.7471 76.0266V110.447H17.4086V76.0266H15.7471ZM5.03411 75.109H26.5593C27.8653 75.109 29.064 75.0718 30.1551 74.9974C31.2462 74.923 32.6515 74.8031 34.3708 74.6378L34.9412 82.6726H34.6436L32.8085 76.8201C31.3041 76.5556 29.7335 76.4233 28.0968 76.4233C26.6915 76.4233 25.4103 76.4977 24.253 76.6465C23.0957 76.7953 21.8476 77.0433 20.5084 77.3905C20.3762 78.928 20.277 80.4118 20.2109 81.8418C20.1447 83.2719 20.0951 84.5945 20.0621 85.8096C20.029 87.0247 20.0124 87.8555 20.0124 88.3018V96.535C20.0124 98.7007 20.0868 101.127 20.2356 103.813C20.3844 106.5 20.5663 108.645 20.7812 110.249L26.9065 111.166V111.414H8.18355V111.166L14.2096 110.249C14.7221 106.595 14.9784 102.173 14.9784 96.9814V88.0043C14.9784 86.1526 14.937 84.3258 14.8544 82.5238C14.7717 80.7218 14.6312 79.0107 14.4328 77.3905C13.4739 77.1259 12.358 76.9152 11.085 76.7581C9.81199 76.601 8.60511 76.506 7.46438 76.4729C5.66236 76.4729 3.88512 76.6217 2.13272 76.9193L0.347218 82.8214H0L0.545584 74.6874C1.04155 74.7205 1.76072 74.799 2.70308 74.923C3.6454 75.047 4.42244 75.109 5.03411 75.109Z" fill="white"/>
<path fill-rule="evenodd" clip-rule="evenodd" d="M52.0526 79.6224L64.923 110.447H66.5845L52.8709 77.5393L52.0526 79.6224ZM51.6558 81.7054C51.2094 82.5816 50.6184 83.8629 49.8827 85.5492C49.147 87.2355 48.4816 88.8143 47.8864 90.2858C47.2913 91.7571 46.6713 93.3236 46.0265 94.9851C45.3817 96.6466 44.9519 97.7419 44.737 98.2709C45.7124 98.4032 46.849 98.4941 48.1468 98.5437C49.4446 98.5933 50.6804 98.6181 51.8542 98.6181C54.7473 98.6181 57.1197 98.5023 58.9714 98.2709C58.3431 96.4027 57.2768 93.7452 55.7724 90.2982C54.2679 86.8512 52.8957 83.9869 51.6558 81.7054ZM54.2844 74.737L65.0222 100.354C66.4109 103.694 68.0311 107.008 69.8827 110.298L73.9993 111.166V111.414H56.4915V111.166L63.2367 110.298C62.9887 108.662 62.53 106.88 61.8604 104.954C61.1908 103.028 60.451 101.354 59.6409 99.9324H44.0922C43.4309 101.602 42.8978 102.974 42.4927 104.049C42.0877 105.124 41.6992 106.24 41.3272 107.397C40.9552 108.554 40.7114 109.521 40.5956 110.298L47.0928 111.166V111.414H33.2305V111.166L37.7934 110.298C38.901 108.38 39.9178 106.264 40.8436 103.95L52.3253 74.737H54.2844Z" fill="white"/>
<path fill-rule="evenodd" clip-rule="evenodd" d="M25.4943 37.8893H22.5929C19.7163 37.8893 17.0752 38.3646 14.6698 39.3152C12.2643 40.2659 10.2308 41.5884 8.56931 43.283C6.90778 44.9776 5.64721 46.9325 4.78751 49.1479C3.92785 51.3632 3.49797 53.7356 3.49797 56.2651C3.49797 58.5796 3.94024 60.7908 4.82473 62.8987C5.70922 65.0066 7.01528 66.883 8.7429 68.528C10.4705 70.1729 12.5329 71.4542 14.9301 72.3717C17.3273 73.2893 20.0056 73.7481 22.9649 73.7481C24.2875 73.7481 25.1306 73.7315 25.4943 73.6985V73.3761C22.2044 73.4422 19.274 73.0083 16.7032 72.0742C14.1324 71.1401 12.0122 69.8341 10.3424 68.156C8.67263 66.478 7.42858 64.5809 6.61023 62.4647C5.79188 60.3486 5.38271 58.1994 5.38271 56.0171C5.38271 53.8679 5.73814 51.7517 6.44904 49.6687C7.1599 47.5855 8.25519 45.6761 9.73483 43.9402C11.2145 42.2043 13.1281 40.8197 15.4757 39.7864C17.8233 38.7531 20.5842 38.2365 23.7584 38.2365H25.4943V37.8893ZM36.7281 67.3996L33.0579 74.1945C31.4708 74.0622 30.3218 73.9961 29.6109 73.9961C28.7347 73.9961 27.5526 74.0622 26.0647 74.1945C24.5768 74.3267 23.4195 74.3929 22.5929 74.3929C19.2533 74.3929 16.2982 73.8762 13.7274 72.8429C11.1566 71.8096 9.03637 70.4127 7.36657 68.652C5.69678 66.8913 4.45686 64.9487 3.64677 62.8243C2.83668 60.6999 2.43164 58.5465 2.43164 56.3643C2.43164 53.5703 2.90695 50.9954 3.85758 48.6395C4.80821 46.2836 6.15144 44.2584 7.88732 42.5638C9.62326 40.8693 11.6485 39.5715 13.963 38.6705C16.2775 37.7694 18.7656 37.3189 21.4274 37.3189C22.1217 37.3189 22.5598 37.3231 22.7417 37.3314C22.9235 37.3396 23.3203 37.3561 23.932 37.3809C24.5437 37.4057 25.1637 37.4346 25.7919 37.4677C28.0238 37.6165 29.7349 37.6909 30.9252 37.6909C33.5704 37.6909 35.298 37.6165 36.1081 37.4677L36.4057 45.8001H36.1081L34.4466 40.27C33.9506 40.1542 33.0744 39.9889 31.8179 39.774C30.5615 39.5591 29.334 39.3855 28.1354 39.2532C26.9367 39.121 25.6844 39.0549 24.3784 39.0549C20.9727 39.0549 18.0589 39.7368 15.6369 41.1007C13.2149 42.4646 11.3922 44.3989 10.1688 46.9036C8.94539 49.4082 8.33372 52.289 8.33372 55.5459C8.33372 58.0754 8.77181 60.4023 9.64804 62.5267C10.5243 64.6511 11.7477 66.4614 13.3182 67.9576C14.8888 69.4538 16.6784 70.5904 18.6871 71.3674C20.6958 72.1444 22.8161 72.533 25.0479 72.533C27.2633 72.533 29.3381 72.1568 31.2724 71.4046C33.2066 70.6524 34.9343 69.2843 36.4553 67.3004L36.7281 67.3996Z" fill="white"/>
<path fill-rule="evenodd" clip-rule="evenodd" d="M46.5714 38.7573V73.1281H48.3073V38.7573H46.5714ZM57.7555 74.0953H39.0078V73.8473L45.0586 72.9297C45.3397 70.8632 45.5505 68.3709 45.691 65.4529C45.8316 62.535 45.9018 59.679 45.9018 56.885V52.7189C45.9018 47.0483 45.6538 42.444 45.1578 38.906L39.0078 38.0381V37.7901H57.7555V38.0381L51.5559 38.906C51.374 40.5097 51.2418 41.9604 51.1591 43.2582C51.0764 44.556 51.002 46.1266 50.9359 47.9699C50.8698 49.8133 50.8367 51.545 50.8367 53.1652V58.6457C50.8367 59.6542 50.8739 61.3033 50.9483 63.593C51.0227 65.8828 51.1219 67.8212 51.2459 69.4083C51.3699 70.9954 51.4897 72.1858 51.6055 72.9793L57.7555 73.8473V74.0953Z" fill="white"/>
</svg>
